<svg viewBox="0 0 16 16" fill="currentColor" xmlns="http://www.w3.org/2000/svg">
<path d="M7.22533 1.6024C6.89953 1.64083 6.57861 1.46352 6.46865 1.15387C6.33711 0.783473 6.55692 0.378488 6.94571 0.325131C10.5291 -0.166651 14.0578 1.85435 15.3033 5.36182C16.5498 8.87181 15.1013 12.7197 12.0301 14.6651C11.7408 14.8483 11.3771 14.6391 11.3616 14.2967C11.3266 13.5244 11.2874 12.5532 11.2786 11.6481C11.2727 11.0314 12.002 10.8694 12.2914 11.4137L12.7231 12.2257C12.7231 12.2257 13.0185 12.0504 13.088 11.9587C14.3837 10.2482 14.8266 7.95637 14.0663 5.81543C13.0426 2.93292 10.1687 1.25515 7.22533 1.6024Z" />
<path d="M8.77467 14.4015C9.10047 14.3631 9.42139 14.5404 9.53135 14.85C9.66289 15.2204 9.44308 15.6254 9.05429 15.6788C5.47087 16.1706 1.94224 14.1496 0.696662 10.6421C-0.549815 7.1321 0.898666 3.28419 3.96995 1.33883C4.25919 1.15562 4.62291 1.36477 4.63843 1.70725C4.67344 2.47954 4.71261 3.45067 4.72136 4.35581C4.72733 4.97247 3.99797 5.13447 3.70858 4.59018L3.27686 3.77818C3.27686 3.77818 2.9815 3.95349 2.91203 4.0452C1.61633 5.75572 1.17344 8.04753 1.93374 10.1885C2.95738 13.071 5.83134 14.7488 8.77467 14.4015Z" />
</svg>
